<?xml version="1.0" standalone="no"?>
<!DOCTYPE svg PUBLIC "-//W3C//DTD SVG 20010904//EN"
 "http://www.w3.org/TR/2001/REC-SVG-20010904/DTD/svg10.dtd">
<svg version="1.0" xmlns="http://www.w3.org/2000/svg"
 width="1280.000000pt" height="1278.000000pt" viewBox="0 0 1280.000000 1278.000000"
 preserveAspectRatio="xMidYMid meet">
<metadata>
Created by potrace 1.15, written by Peter Selinger 2001-2017
</metadata>
<g transform="translate(0.000000,1278.000000) scale(0.100000,-0.100000)"
fill="#000000" stroke="none">
<path d="M6378 12743 c-86 -146 -278 -968 -329 -1407 l-12 -110 -49 53 c-27
29 -54 51 -61 48 -17 -6 -69 -112 -96 -195 -37 -109 -53 -203 -60 -339 l-6
-132 -65 44 c-36 25 -68 45 -72 45 -12 0 -37 -97 -54 -210 -19 -128 -30 -537
-16 -597 5 -24 8 -43 6 -43 -2 0 -36 25 -76 55 -40 30 -95 66 -123 80 -79 40
-80 36 -80 -213 0 -173 4 -225 23 -318 25 -125 56 -224 96 -303 l28 -54 -39
24 c-21 13 -79 51 -129 84 -114 77 -152 94 -165 74 -5 -8 -9 -27 -9 -43 0 -23
-3 -27 -17 -20 -47 21 -118 15 -208 -16 -155 -55 -301 -135 -680 -370 -528
-328 -781 -461 -1097 -578 -173 -64 -265 -86 -478 -112 -259 -31 -360 -52
-360 -74 0 -14 100 -46 210 -68 90 -17 431 -15 538 4 l83 15 32 -39 c59 -71
145 -69 408 8 68 20 131 38 140 41 9 2 33 -7 53 -21 71 -48 136 -47 319 6
l109 32 119 -24 c113 -23 123 -23 206 -10 100 16 162 17 313 6 93 -8 114 -6
183 13 78 21 97 21 97 -2 0 -17 105 -232 131 -268 12 -17 19 -33 16 -35 -8 -8
-84 28 -182 85 -48 29 -94 50 -101 47 -23 -9 -34 -52 -34 -129 0 -68 20 -180
34 -194 9 -10 67 20 174 91 95 63 152 87 182 78 8 -2 60 -21 115 -42 128 -49
193 -65 335 -84 153 -19 271 -65 270 -104 -1 -20 -114 -116 -213 -180 -128
-83 -240 -110 -494 -119 -90 -3 -163 -8 -163 -12 0 -3 19 -25 42 -48 l42 -43
-32 0 c-18 0 -74 9 -125 21 l-92 20 -18 -22 c-15 -19 -17 -33 -12 -73 12 -87
67 -235 147 -395 43 -85 77 -155 76 -157 -7 -7 -272 88 -336 120 -89 45 -157
105 -173 153 -53 163 139 396 346 417 33 4 74 9 92 12 l32 5 -33 43 c-52 68
-105 159 -133 228 -13 35 -28 67 -33 72 -9 9 -155 -70 -254 -137 -86 -58 -200
-170 -250 -246 -72 -109 -91 -175 -91 -316 0 -100 4 -132 24 -194 60 -183 211
-332 444 -441 89 -41 235 -95 241 -89 2 2 -12 51 -31 108 -43 130 -55 241 -28
271 10 11 24 20 32 20 7 0 49 -19 92 -42 81 -44 101 -46 81 -8 -10 19 -9 21 7
16 24 -7 206 -55 363 -96 292 -76 567 -160 703 -215 17 -7 17 5 12 221 -3 126
-10 618 -16 1094 -7 476 -13 867 -15 868 -1 2 -22 -9 -46 -25 -141 -96 -288
-163 -359 -163 -22 0 -70 5 -108 11 l-67 11 -100 -46 c-138 -63 -183 -70 -307
-50 -84 14 -107 15 -149 4 -27 -6 -51 -11 -52 -9 -2 2 -18 47 -34 100 -67 209
-90 408 -50 432 17 11 33 4 194 -82 89 -48 101 -40 54 36 -44 73 -84 193 -104
313 -18 110 -29 311 -18 328 7 10 27 -1 83 -46 234 -188 590 -344 982 -433
l79 -17 -4 177 -3 178 -76 75 c-107 106 -133 162 -134 288 0 88 3 101 32 161
41 82 111 150 201 192 60 28 77 32 157 32 80 0 97 -3 155 -31 192 -92 273
-300 197 -504 -16 -42 -39 -73 -101 -135 l-81 -80 -3 -176 c-3 -167 -2 -177
15 -173 260 60 394 100 562 170 182 77 374 188 511 297 32 26 47 33 53 24 11
-16 -1 -220 -19 -327 -20 -120 -60 -240 -104 -313 -56 -92 -45 -91 168 23 49
26 67 32 80 23 41 -25 17 -224 -50 -429 -31 -93 -35 -99 -58 -95 -14 2 -59 2
-100 0 -261 -9 -265 -8 -382 44 l-106 49 -76 -13 c-136 -21 -212 1 -401 120
-54 34 -99 60 -100 59 -2 -3 -23 -1431 -27 -1913 -2 -176 0 -269 7 -268 6 1
73 24 150 51 147 51 379 117 705 202 107 28 203 53 213 56 16 5 17 3 7 -16
-20 -38 -1 -36 80 8 89 48 100 50 125 22 27 -30 15 -141 -28 -271 -19 -57 -33
-106 -31 -108 6 -7 169 57 271 106 124 59 200 112 266 183 203 219 236 509 85
740 -85 130 -259 275 -440 366 -37 19 -68 38 -68 42 1 4 7 34 15 67 27 110 17
247 -19 261 -7 3 -47 -15 -88 -40 -88 -53 -187 -100 -195 -93 -3 3 4 19 16 36
26 36 131 251 131 268 0 23 19 23 97 2 68 -19 91 -21 183 -14 154 12 215 11
313 -5 83 -13 93 -13 206 10 l119 24 109 -32 c182 -52 248 -54 318 -6 l36 24
132 -39 c280 -84 380 -86 441 -7 l24 33 74 -13 c192 -35 439 -28 656 17 83 18
102 25 102 39 0 24 -124 53 -315 75 -216 24 -299 41 -440 88 -337 114 -622
263 -1280 667 -413 254 -613 347 -722 338 -27 -3 -56 -8 -65 -12 -15 -7 -18
-3 -18 20 0 41 -13 57 -39 49 -12 -3 -67 -37 -124 -74 -56 -37 -119 -77 -140
-90 l-39 -24 28 54 c40 79 71 178 96 303 19 93 23 145 23 318 0 251 -2 255
-83 211 -28 -16 -82 -50 -119 -78 -37 -27 -71 -51 -75 -53 -3 -2 -2 16 4 40
14 61 3 469 -16 598 -17 113 -42 210 -54 210 -4 0 -36 -20 -72 -45 l-65 -44
-6 132 c-7 133 -22 217 -60 337 -26 79 -87 200 -102 200 -6 0 -31 -24 -57 -52
l-47 -52 -12 99 c-46 375 -181 1008 -274 1280 -29 82 -66 165 -76 165 -4 0
-14 -12 -23 -27z m1241 -5013 c24 -11 71 -40 105 -64 34 -23 82 -55 108 -70
l47 -27 -33 -77 c-32 -78 -124 -229 -152 -253 -22 -18 0 -29 62 -29 77 0 174
-34 242 -84 96 -71 148 -155 158 -254 11 -104 -40 -169 -191 -242 -74 -36
-316 -121 -324 -114 -2 1 22 49 52 106 73 136 134 284 158 383 23 98 23 107 1
135 l-17 21 -95 -20 c-52 -12 -108 -21 -124 -21 l-30 0 42 43 c23 23 42 45 42
48 0 3 -73 9 -162 12 -172 7 -310 26 -380 54 -83 32 -295 185 -327 236 -31 48
54 85 257 112 194 27 253 41 347 84 103 46 148 51 214 21z"/>
<path d="M7442 7624 c-34 -23 -45 -60 -31 -101 21 -65 106 -80 149 -26 62 79
-37 184 -118 127z"/>
<path d="M5 8388 c41 -136 448 -722 713 -1025 l54 -62 -64 -3 c-61 -3 -63 -4
-60 -28 6 -46 81 -188 142 -269 34 -44 91 -107 128 -141 60 -54 64 -60 41 -60
-30 0 -119 -29 -119 -38 0 -4 30 -46 66 -94 82 -111 294 -323 375 -377 34 -22
55 -43 48 -45 -8 -2 -50 -11 -94 -21 -83 -18 -135 -39 -135 -54 0 -16 71 -95
139 -154 133 -117 352 -246 444 -262 20 -4 39 -11 42 -15 3 -4 -50 -22 -117
-40 -152 -40 -168 -46 -168 -64 0 -22 152 -159 244 -221 105 -69 194 -110 281
-128 68 -13 68 -14 45 -30 -13 -9 -60 -29 -105 -43 -78 -26 -115 -47 -115 -67
0 -17 74 -78 153 -124 143 -84 365 -170 485 -189 23 -4 45 -10 48 -15 7 -12
-39 -33 -126 -59 -41 -12 -85 -29 -98 -36 -21 -14 -21 -16 -8 -43 30 -57 140
-135 251 -177 95 -35 200 -54 306 -54 52 0 89 -4 89 -10 0 -5 -34 -35 -76 -66
-41 -31 -78 -62 -81 -70 -21 -54 228 -168 480 -220 49 -10 86 -23 84 -29 -2
-5 -32 -20 -67 -33 -106 -38 -114 -58 -48 -117 87 -79 301 -157 490 -178 l107
-12 -35 -44 c-19 -25 -37 -56 -41 -69 -11 -46 0 -51 363 -162 94 -29 102 -33
118 -67 29 -60 9 -63 -101 -10 -108 51 -219 84 -247 74 -15 -6 -17 -14 -11
-40 3 -17 9 -50 12 -71 l6 -40 -29 23 c-131 101 -225 143 -331 145 -100 2
-104 -6 -54 -90 40 -65 49 -89 34 -82 -5 2 -43 20 -85 40 -99 49 -234 88 -325
95 -91 7 -100 -5 -55 -77 32 -51 50 -95 36 -88 -127 62 -208 80 -347 76 -60
-2 -102 -7 -104 -14 -2 -6 19 -44 47 -85 27 -40 50 -77 50 -81 0 -4 -20 2 -43
12 -81 36 -177 53 -307 54 -69 1 -133 -2 -143 -6 -17 -7 -17 -9 -1 -40 9 -18
30 -49 45 -69 16 -20 29 -38 29 -40 0 -2 -42 -3 -92 -1 -148 6 -378 -27 -378
-52 0 -8 9 -25 20 -39 11 -14 20 -27 20 -30 0 -2 -38 -7 -84 -10 -89 -6 -232
-48 -269 -78 l-22 -17 28 -30 28 -29 -78 -12 c-300 -47 -793 -178 -793 -211 0
-33 415 -130 754 -177 l128 -17 -33 -27 -32 -26 24 -16 c58 -38 217 -77 315
-77 l53 0 -25 -37 c-13 -20 -21 -40 -16 -45 19 -19 138 -32 298 -32 l171 -1
-33 -48 c-36 -52 -49 -85 -39 -95 4 -4 59 -7 123 -6 126 1 259 27 332 64 21
11 42 20 44 20 3 0 -17 -35 -44 -78 -70 -110 -69 -112 39 -112 117 0 220 22
303 64 l67 33 -10 -25 c-6 -14 -22 -47 -36 -72 -33 -58 -27 -80 23 -80 82 0
290 69 397 132 59 34 60 23 11 -68 -42 -76 -39 -84 37 -84 99 0 230 58 328
146 l54 49 -6 -40 c-4 -22 -10 -56 -13 -76 -5 -32 -3 -38 15 -44 41 -13 192
46 337 131 24 14 44 23 44 20 0 -4 -12 -30 -26 -58 -25 -50 -26 -52 -8 -65 46
-34 235 34 361 128 29 21 55 39 58 39 3 0 5 -14 5 -31 0 -53 17 -72 56 -64 26
4 42 1 64 -15 17 -12 30 -24 30 -28 0 -4 -28 -8 -61 -10 -81 -4 -165 -37 -209
-80 -33 -33 -34 -35 -15 -43 11 -5 38 -16 60 -25 l40 -17 -35 -10 c-141 -39
-279 -113 -280 -149 0 -3 22 -14 50 -23 56 -19 73 -35 37 -35 -36 0 -136 -54
-194 -105 -29 -26 -53 -51 -53 -55 0 -5 28 -18 63 -28 l62 -18 -57 -26 c-71
-33 -130 -73 -186 -128 -49 -48 -47 -56 21 -73 l46 -12 -57 -46 c-49 -39 -172
-176 -172 -191 0 -3 14 -8 31 -12 l32 -6 -45 -48 c-45 -48 -90 -119 -103 -159
-6 -20 -3 -23 24 -23 l31 0 -61 -72 c-131 -159 -303 -417 -287 -433 16 -16
278 121 456 238 l82 55 0 -29 c0 -17 5 -29 13 -29 24 0 154 68 190 100 l37 32
0 -31 c0 -20 5 -31 14 -31 19 0 121 71 192 134 l62 55 6 -49 c4 -27 10 -52 15
-55 23 -14 168 138 208 219 23 45 26 40 38 -47 3 -26 11 -47 17 -47 24 0 139
131 168 191 17 36 31 56 34 48 3 -8 10 -33 16 -56 6 -24 15 -43 19 -43 12 0
72 68 100 114 13 21 39 72 57 113 l32 75 11 -38 c6 -22 11 -47 11 -56 0 -35
23 -29 69 19 49 51 90 148 92 216 l0 32 17 -24 c9 -14 25 -34 35 -45 l17 -21
21 25 c25 30 81 139 98 193 12 36 31 51 31 23 0 -8 4 -26 10 -41 8 -21 13 -24
29 -16 42 23 121 185 121 248 0 28 5 29 37 3 34 -26 44 -17 82 73 16 40 37 89
46 111 l16 38 23 -21 c22 -20 25 -21 39 -6 22 22 42 93 58 203 7 51 16 92 21
92 4 0 12 -9 18 -20 28 -52 46 -17 95 180 14 58 28 114 32 125 8 30 -59 -37
-113 -111 -62 -87 -89 -153 -114 -279 -12 -60 -26 -114 -30 -119 -5 -5 -16 17
-26 50 -43 149 29 355 218 618 54 76 67 100 57 107 -8 4 -99 70 -203 146 -397
290 -529 463 -529 698 0 275 146 518 441 735 l102 74 -33 20 c-275 166 -415
294 -496 453 -45 90 -61 169 -61 309 0 349 128 615 422 875 l77 68 -35 10
c-19 5 -115 28 -212 51 -210 50 -630 156 -654 165 -10 4 -18 4 -18 1 0 -28
119 -222 181 -297 22 -26 39 -49 39 -52 0 -2 -34 -7 -76 -9 -59 -4 -80 -10
-97 -26 -21 -21 -21 -22 -3 -79 10 -31 60 -145 111 -253 83 -173 135 -291 135
-305 0 -3 -14 -5 -30 -5 -24 0 -33 6 -42 28 -7 15 -23 44 -35 65 -32 50 -59
49 -119 -8 l-48 -44 -18 87 c-36 180 -125 375 -213 469 -62 64 -89 69 -111 18
-7 -19 -14 -41 -14 -50 0 -9 -7 -32 -16 -53 l-16 -37 -37 105 c-77 213 -130
320 -196 398 -57 66 -73 59 -144 -67 -19 -34 -37 -61 -41 -61 -4 0 -12 39 -19
88 -23 166 -75 299 -164 417 -47 62 -88 98 -132 115 -32 12 -39 -1 -60 -106
-19 -94 -34 -144 -43 -144 -4 0 -18 35 -31 77 -62 200 -300 573 -365 573 -23
0 -44 -38 -56 -100 -16 -76 -40 -150 -50 -150 -4 0 -11 16 -15 36 -17 95 -107
240 -222 360 -76 79 -168 154 -189 154 -16 0 -28 -44 -49 -184 -8 -61 -18
-112 -20 -114 -2 -3 -8 4 -11 14 -40 114 -135 254 -267 391 -90 93 -200 178
-221 170 -17 -7 -33 -71 -41 -167 l-7 -75 -102 100 c-55 55 -146 134 -200 175
-94 70 -251 170 -267 170 -4 0 -13 -31 -20 -69 l-12 -69 -78 63 c-91 74 -189
133 -279 169 -78 30 -148 49 -158 42 -5 -3 -5 -31 -1 -63 3 -32 5 -59 4 -60 0
-2 -32 20 -71 48 -235 170 -750 464 -972 555 -124 51 -146 54 -137 22z"/>
<path d="M12700 8381 c-213 -80 -854 -444 -1043 -593 -21 -17 -39 -29 -41 -27
-2 2 0 30 4 63 l6 58 -46 -5 c-105 -13 -343 -142 -435 -236 l-40 -42 -12 67
c-7 37 -15 69 -18 72 -25 26 -399 -247 -518 -379 l-54 -59 -6 75 c-8 85 -25
163 -39 171 -30 19 -249 -178 -356 -321 -53 -70 -132 -215 -132 -241 0 -8 -4
-14 -8 -14 -5 0 -17 55 -26 122 -21 139 -32 178 -51 178 -20 0 -118 -84 -197
-168 -104 -111 -174 -222 -208 -332 l-18 -55 -16 38 c-9 21 -22 64 -27 95 -15
81 -34 122 -57 122 -10 0 -44 -26 -75 -58 -102 -107 -226 -323 -292 -506 -29
-81 -34 -87 -44 -68 -6 12 -20 65 -31 119 -11 54 -26 103 -33 110 -35 35 -170
-98 -236 -231 -42 -84 -90 -251 -92 -315 0 -20 -4 -45 -8 -55 -7 -18 -9 -17
-27 10 -11 16 -35 55 -54 87 -23 38 -41 57 -54 57 -53 0 -173 -206 -252 -434
-42 -122 -52 -124 -73 -17 -6 33 -18 65 -26 71 -68 57 -246 -218 -300 -465
-10 -44 -21 -93 -24 -110 l-7 -29 -51 48 c-68 63 -86 60 -131 -21 -30 -56 -37
-63 -64 -63 -37 0 -37 -1 49 185 198 426 199 428 164 459 -15 14 -42 20 -96
24 -41 2 -75 7 -75 9 0 3 17 26 39 52 65 78 190 285 179 296 -2 2 -64 -14
-139 -35 -75 -21 -219 -57 -320 -80 -231 -52 -432 -100 -441 -106 -4 -3 51
-62 121 -132 187 -185 273 -325 325 -523 65 -250 55 -447 -30 -609 -84 -160
-212 -277 -492 -446 l-32 -20 67 -47 c152 -104 291 -245 365 -369 58 -98 99
-232 105 -348 7 -119 -7 -188 -58 -288 -80 -158 -234 -301 -580 -539 -55 -37
-97 -73 -95 -78 2 -6 33 -49 69 -97 141 -187 226 -385 227 -529 0 -39 -27
-129 -40 -129 -4 0 -17 51 -29 113 -12 61 -35 139 -50 172 -31 66 -99 161
-154 213 l-35 34 34 -114 c18 -62 38 -132 44 -155 6 -24 22 -55 35 -70 l24
-28 24 29 23 28 17 -111 c17 -115 46 -201 68 -201 7 0 20 7 30 16 21 19 22 17
68 -99 49 -124 67 -140 106 -97 18 20 19 19 36 -49 20 -78 46 -134 84 -180 33
-38 53 -40 61 -3 12 56 16 57 34 7 38 -109 93 -205 119 -205 4 0 18 19 31 43
l24 42 13 -65 c7 -36 25 -88 39 -117 25 -53 88 -118 104 -108 5 3 14 30 20 60
6 31 16 53 21 50 5 -4 9 -13 9 -21 0 -48 147 -280 173 -271 11 3 19 25 32 82
6 29 7 28 37 -34 29 -60 142 -191 166 -191 10 0 15 17 28 99 l6 44 26 -54 c25
-52 176 -219 199 -219 13 0 23 34 23 78 0 17 1 32 3 32 2 0 28 -23 58 -50 30
-28 88 -74 129 -101 l75 -51 8 32 8 31 38 -30 c43 -35 157 -91 183 -91 14 0
16 6 11 31 l-6 32 74 -50 c145 -98 431 -253 466 -253 32 0 -108 219 -269 420
-66 83 -67 85 -42 88 22 3 25 7 19 30 -10 40 -55 112 -101 160 l-42 43 29 6
c16 3 29 9 29 13 0 20 -114 146 -182 200 l-46 37 54 12 c42 10 54 17 52 29 -7
37 -170 153 -263 187 -16 6 -7 11 39 24 33 10 62 23 64 29 10 32 -179 162
-237 162 -37 0 -22 18 29 35 29 10 50 23 50 31 0 29 -183 123 -272 139 -47 9
-40 22 18 36 24 6 47 16 51 22 10 17 -64 74 -124 97 -32 12 -78 20 -113 20
-33 0 -60 4 -60 9 0 18 57 46 95 46 39 0 39 1 48 45 5 25 11 47 12 49 2 2 23
-12 47 -32 86 -69 213 -128 311 -142 33 -5 46 -3 57 10 11 14 10 23 -8 61 -12
24 -22 49 -22 53 0 5 39 -13 88 -40 88 -50 190 -92 250 -104 48 -10 61 6 51
58 -4 23 -8 53 -9 65 0 24 1 24 38 -8 67 -56 145 -103 212 -127 76 -26 177
-31 186 -9 3 8 -11 46 -31 86 -21 39 -35 73 -32 76 2 3 26 -9 53 -26 124 -78
415 -158 439 -120 4 6 -10 42 -29 80 -43 83 -45 98 -8 71 60 -42 180 -73 303
-79 84 -3 118 -1 124 7 4 7 -7 35 -25 64 -18 29 -41 66 -52 83 l-19 32 61 -25
c111 -44 327 -75 414 -59 32 6 36 10 30 29 -4 12 -19 40 -34 62 -14 22 -29 45
-32 50 -4 6 54 10 165 11 148 0 270 13 299 31 5 2 -3 21 -17 41 l-25 37 85 7
c47 4 113 15 147 23 63 17 148 53 148 63 0 3 -12 18 -26 33 l-25 26 98 13
c328 41 773 145 773 180 0 33 -461 158 -763 206 l-108 17 30 24 c17 14 31 29
31 34 0 32 -225 99 -330 99 l-50 0 26 40 c15 22 24 43 22 46 -17 16 -190 37
-324 38 l-151 1 44 63 c25 34 43 69 40 76 -18 46 -336 23 -462 -33 -26 -11
-42 -15 -38 -8 4 7 29 45 55 86 26 40 45 77 42 82 -8 14 -202 10 -277 -6 -38
-8 -94 -26 -124 -40 -31 -14 -57 -25 -59 -25 -7 0 10 35 38 81 15 25 28 56 28
69 0 22 -2 23 -77 17 -89 -6 -244 -52 -345 -103 -44 -22 -68 -30 -68 -22 0 7
16 39 35 71 19 32 35 64 35 72 0 19 -59 29 -117 20 -98 -14 -225 -77 -302
-149 l-34 -31 7 35 c19 99 19 119 0 127 -27 10 -135 -22 -246 -74 -111 -52
-133 -50 -98 10 19 32 31 39 108 62 199 59 319 98 345 111 41 22 35 62 -19
127 -13 16 -24 32 -24 36 0 5 40 11 88 14 228 16 542 151 542 232 0 25 -33 55
-60 55 -20 1 -104 39 -98 45 3 3 59 19 124 35 205 50 345 105 407 160 20 17
37 38 37 45 0 8 -35 40 -77 72 -86 65 -98 82 -54 75 40 -6 212 14 286 33 131
33 294 135 330 205 19 36 15 39 -112 79 -141 45 -144 53 -30 80 198 49 455
168 561 262 20 17 36 37 36 44 0 21 -39 44 -115 66 -108 32 -160 69 -97 69 79
0 244 76 372 171 93 68 190 162 190 182 0 17 -45 33 -180 67 -117 30 -120 33
-53 54 32 10 88 33 125 51 187 91 463 321 444 370 -6 15 -77 39 -173 58 -35 6
-63 15 -63 19 0 5 5 8 11 8 49 0 385 335 474 473 22 35 17 40 -65 57 l-58 12
69 66 c39 36 92 95 120 131 53 71 136 230 141 271 3 24 1 25 -60 25 -34 0 -62
3 -62 6 0 3 12 16 26 30 39 36 207 246 329 409 197 265 383 559 410 648 8 29
-1 28 -95 -7z"/>
<path d="M5197 7620 c-33 -27 -43 -70 -23 -109 41 -78 167 -46 166 42 -1 73
-85 113 -143 67z"/>
<path d="M6190 5639 c-261 -175 -414 -484 -371 -747 25 -154 136 -275 388
-420 39 -23 75 -42 80 -42 4 0 5 174 2 387 -4 214 -7 497 -8 631 0 133 -4 242
-8 242 -5 0 -42 -23 -83 -51z"/>
<path d="M6516 5108 c-4 -321 -9 -604 -12 -630 -4 -34 -2 -48 6 -48 29 0 258
150 326 213 57 53 82 86 111 145 37 74 38 78 37 186 0 130 -18 204 -74 321
-46 96 -117 192 -193 261 -53 48 -149 118 -180 130 -12 4 -15 -74 -21 -578z"/>
<path d="M6150 3856 c-249 -167 -360 -324 -360 -510 0 -107 19 -136 209 -326
91 -91 201 -194 244 -228 69 -57 77 -61 77 -40 0 18 7 11 31 -29 17 -29 32
-53 34 -53 2 0 -10 31 -27 70 -17 38 -34 67 -39 64 -8 -4 -39 49 -59 101 -16
42 -2 27 26 -26 14 -28 26 -49 28 -47 5 6 -13 1063 -19 1085 -3 13 -9 23 -13
23 -4 -1 -63 -38 -132 -84z"/>
<path d="M6499 3833 c-1 -60 -4 -290 -8 -513 -3 -223 -5 -407 -4 -408 1 -2 11
13 23 35 23 41 22 37 -5 -46 -10 -30 -20 -48 -24 -42 -4 6 -22 -30 -39 -80
-18 -52 -26 -87 -19 -80 8 6 22 36 33 68 l19 57 5 -48 5 -47 150 134 c272 243
355 342 374 440 27 149 -76 341 -260 483 -62 48 -228 154 -241 154 -4 0 -9
-48 -9 -107z"/>
<path d="M6437 2348 c-22 -217 -35 -381 -43 -565 l-6 -153 -28 0 -27 0 -8 348
c-4 191 -7 376 -6 412 l0 65 -18 -51 c-10 -28 -22 -66 -25 -85 -7 -32 -6 -33
8 -15 9 11 18 18 20 15 2 -2 -3 -71 -12 -154 -10 -102 -15 -264 -16 -510 -1
-325 1 -376 22 -525 52 -373 55 -401 55 -667 l1 -263 57 0 57 0 8 67 c10 95
-3 484 -21 628 -33 265 -54 477 -60 603 l-7 132 41 0 41 0 0 238 c0 130 3 288
7 350 6 104 7 111 23 97 9 -8 19 -15 22 -15 7 0 -51 192 -61 203 -4 4 -15 -66
-24 -155z"/>
</g>
</svg>
